# xmcd
#
# Track frame offsets:
#	150
#	16064
#	33443
#	45905
#	62400
#	76461
#	92121
#	108089
#	124282
#	140035
#	153127
#	166047
#
# Disc length: 2409 seconds
#
# Revision: 0
# Processed by: cddbd v1.5.2PL0 Copyright (c) Steve Scherf et al.
# Submitted via: dBpowerAMP V4.0
#
DISCID=8609670c
DTITLE=Wenche Hartmann - Here I Am
DYEAR=2006
DGENRE=Country
TTITLE0=If I Said You Had A Beautiful Body (with Bellamy Brothers)
TTITLE1=It Never Rains In Southern California (with Albert Hammond)
TTITLE2=Holdin` Out For A Hero
TTITLE3=If You Think You Know How To Love Me (with Smokie)
TTITLE4=God Bless the American Housewife
TTITLE5=I Can Help (with Billy Swan)
TTITLE6=Angel
TTITLE7=You`re the World (with Bellamy Brothers)
TTITLE8=My Father`s Daughter
TTITLE9=Lover Please (with Billy Swan)
TTITLE10=Honey Do
TTITLE11=I`ll Be Here For You (with Albert Hammond)
EXTD=
EXTT0=
EXTT1=
EXTT2=
EXTT3=
EXTT4=
EXTT5=
EXTT6=
EXTT7=
EXTT8=
EXTT9=
EXTT10=
EXTT11=
PLAYORDER=
